<svg viewBox="70 14 380 466" xmlns="http://www.w3.org/2000/svg">
  <!-- top tabs -->
  <rect x="122" y="24" width="40" height="20" rx="5" fill="#6c6e71"/>
  <rect x="178" y="24" width="40" height="20" rx="5" fill="#6c6e71"/>
  <!-- left edge tab -->
  <rect x="78" y="96" width="16" height="58" rx="5" fill="#6c6e71"/>
  <!-- right edge tabs -->
  <rect x="420" y="96" width="18" height="58" rx="5" fill="#6c6e71"/>
  <rect x="420" y="372" width="18" height="66" rx="5" fill="#6c6e71"/>
  <!-- body -->
  <rect x="92" y="42" width="328" height="426" rx="16" fill="#333436"/>
  <!-- gray right panel -->
  <path d="M352 42 H404 a16 16 0 0 1 16 16 V452 a16 16 0 0 1 -16 16 H352 Z" fill="#7f8184"/>
  <!-- red play triangle -->
  <path d="M385 103 l14 26 h-28 Z" fill="#e83a2b"/>
  <!-- four vertical sliders -->
  <g>
    <rect x="124" y="212" width="16" height="100" rx="8" fill="#1b1c1e"/>
    <rect x="186" y="212" width="16" height="100" rx="8" fill="#1b1c1e"/>
    <rect x="248" y="212" width="16" height="100" rx="8" fill="#1b1c1e"/>
    <rect x="310" y="212" width="16" height="100" rx="8" fill="#1b1c1e"/>
    <circle cx="132" cy="258" r="11" fill="#87898c"/>
    <circle cx="194" cy="258" r="11" fill="#87898c"/>
    <circle cx="256" cy="258" r="11" fill="#87898c"/>
    <circle cx="318" cy="258" r="11" fill="#87898c"/>
  </g>
  <!-- indicator dots -->
  <g fill="#f2f3f4">
    <circle cx="132" cy="348" r="5"/>
    <circle cx="194" cy="348" r="5"/>
    <circle cx="256" cy="348" r="5"/>
    <circle cx="318" cy="348" r="5"/>
  </g>
  <!-- four buttons -->
  <g fill="#45474a">
    <rect x="117" y="388" width="30" height="54" rx="7"/>
    <rect x="179" y="388" width="30" height="54" rx="7"/>
    <rect x="241" y="388" width="30" height="54" rx="7"/>
    <rect x="303" y="388" width="30" height="54" rx="7"/>
  </g>
  <!-- two dots (bottom right) -->
  <circle cx="384" cy="392" r="5" fill="#5a5c5f"/>
  <circle cx="384" cy="412" r="5" fill="#c8a87a"/>
</svg>
